<svg width="68" height="68" viewBox="0 0 68 68" fill="none" xmlns="http://www.w3.org/2000/svg">
<g clip-path="url(#clip0_7143_4209)">
<path d="M42.5 12.75C43.6688 12.75 44.625 13.7062 44.625 14.875C44.625 16.0438 43.6688 17 42.5 17H25.5C24.3312 17 23.375 16.0438 23.375 14.875C23.375 13.7062 24.3312 12.75 25.5 12.75H42.5ZM36.6695 30.5867C37.5461 30.7461 38.8742 31.0117 39.4586 31.1711C40.8797 31.543 41.7297 33.0039 41.3445 34.4117C40.9727 35.8328 39.5117 36.6828 38.1039 36.2977C37.5859 36.1648 35.793 35.8195 35.2086 35.607C33.5883 35.4742 32.1539 35.6867 31.4102 36.0719C30.5734 36.4438 30.3742 36.882 30.3211 37.1477C30.2414 37.5992 30.3211 37.7586 30.3477 37.8117C30.3742 37.8781 30.4805 38.0375 30.8258 38.2766C31.6359 38.8344 32.9109 39.2328 34.6773 39.8039L34.9031 39.8305C36.5102 40.3219 38.6617 40.9594 40.2688 42.1414C41.1586 42.7789 41.9953 43.6555 42.5133 44.8508C43.0445 46.0594 43.1508 47.3875 42.9117 48.7688C42.4734 51.2922 40.8 53.0187 38.7016 53.9086C38.0641 54.068 37.3734 54.3867 36.6695 54.5195V55.25C36.6695 56.7242 35.4742 57.9195 33.8805 57.9195C32.5258 57.9195 31.3305 56.7242 31.3305 55.25V54.4C30.0687 54.1078 28.3023 53.55 27.3727 53.1914C27.1469 53.1117 26.9477 53.0453 26.7883 52.8727C25.3937 52.5273 24.6367 51.0266 25.1016 49.632C25.5664 48.2375 27.0672 47.4805 28.4617 47.9453C28.7273 48.0383 29.0195 48.1313 29.3117 48.2375C30.5734 48.6625 31.9945 49.1406 32.7914 49.2734C34.4914 49.5391 35.8063 49.3664 36.6164 49.0211C37.3469 48.7156 37.5992 48.3172 37.6789 47.8523C37.7719 47.3211 37.6922 47.082 37.6391 46.9758C37.5992 46.8563 37.4797 46.6703 37.1477 46.4313C36.3641 45.8602 35.1156 45.4484 33.2562 44.8773L32.9641 44.7977C31.4102 44.3328 29.3781 43.7219 27.8375 42.6727C26.9609 42.075 26.0977 41.2516 25.5398 40.0828C24.982 38.9008 24.8492 37.5859 25.0883 36.2312C25.5133 33.8008 27.2398 32.1273 29.2188 31.2242C29.7633 30.932 30.5867 30.7063 31.3305 30.5469V29.6305C31.3305 28.2758 32.5258 27.0805 34 27.0805C35.4742 27.0805 36.6695 28.2758 36.6695 29.6305V30.5867Z" fill="#007C77"/>
<path opacity="0.4" d="M19.2047 3.30437C18.2617 1.89125 19.2711 0 20.9711 0H47.0289C48.7289 0 49.7383 1.89125 48.7953 3.30437L42.5 12.75H25.5L19.2047 3.30437ZM44.107 18.1156C51.757 22.9367 68 33.3227 68 55.25C68 62.2891 62.2891 68 55.25 68H12.75C5.70828 68 0 62.2891 0 55.25C0 33.3227 16.243 22.9367 23.7734 18.1156C24.4242 17.7039 24.9953 17.332 25.5 17H42.5C43.0047 17.332 43.5758 17.7039 44.107 18.1156ZM31.3305 29.75V30.5469C30.5867 30.7063 29.7633 30.932 29.2188 31.2242C27.2398 32.1273 25.5133 33.8008 25.0883 36.2312C24.8492 37.5859 24.982 38.9008 25.5398 40.0828C26.0977 41.2516 26.9609 42.075 27.8375 42.6727C29.3781 43.7219 31.4102 44.3328 32.9641 44.7977L33.2562 44.8773C35.1156 45.4484 36.3641 45.8602 37.1477 46.4313C37.4797 46.6703 37.5992 46.8563 37.6391 46.9758C37.6922 47.082 37.7719 47.3211 37.6789 47.8523C37.5992 48.3172 37.3469 48.7156 36.6164 49.0211C35.8063 49.3664 34.4914 49.5391 32.7914 49.2734C31.9945 49.1406 30.5734 48.6625 29.3117 48.2375C29.0195 48.1313 28.7273 48.0383 28.4617 47.9453C27.0672 47.4805 25.5664 48.2375 25.1016 49.632C24.6367 51.0266 25.3937 52.5273 26.7883 52.8727C26.9477 53.0453 27.1469 53.1117 27.3727 53.1914C28.3023 53.55 30.0687 54.1078 31.3305 54.4V55.25C31.3305 56.7242 32.5258 57.9195 33.8805 57.9195C35.4742 57.9195 36.6695 56.7242 36.6695 55.25V54.5195C37.3734 54.3867 38.0641 54.068 38.7016 53.9086C40.8 53.0187 42.4734 51.2922 42.9117 48.7688C43.1508 47.3875 43.0445 46.0594 42.5133 44.8508C41.9953 43.6555 41.1586 42.7789 40.2688 42.1414C38.6617 40.9594 36.5102 40.3219 34.9031 39.8305L34.6773 39.8039C32.9109 39.2328 31.6359 38.8344 30.8258 38.2766C30.4805 38.0375 30.3742 37.8781 30.3477 37.8117C30.3211 37.7586 30.2414 37.5992 30.3211 37.1477C30.3742 36.882 30.5734 36.4438 31.4102 36.0719C32.1539 35.6867 33.5883 35.4742 35.2086 35.607C35.793 35.8195 37.5859 36.1648 38.1039 36.2977C39.5117 36.6828 40.9727 35.8328 41.3445 34.4117C41.7297 33.0039 40.8797 31.543 39.4586 31.1711C38.8742 31.0117 37.5461 30.7461 36.6695 30.5867V29.75C36.6695 28.2758 35.4742 27.0805 33.8805 27.0805C32.5258 27.0805 31.3305 28.2758 31.3305 29.75Z" fill="#007C77"/>
</g>
<defs>
<clipPath id="clip0_7143_4209">
<rect width="68" height="68" fill="white"/>
</clipPath>
</defs>
</svg>
