<svg width="40" height="53" viewBox="0 0 40 53" fill="none" xmlns="http://www.w3.org/2000/svg">
<path opacity="0.4" d="M19.3854 0.0108259C8.4375 0.334416 0 9.81893 0 20.7036V48.0317C0 49.5068 1.80208 50.2449 2.84375 49.1963L5.44271 47.2812C6.13281 46.7635 7.10938 46.8671 7.68229 47.5141L12.1615 52.515C12.8125 53.1621 13.8667 53.1621 14.5177 52.515L18.749 47.7729C19.413 47.0223 20.5844 47.0223 21.249 47.7729L25.4813 52.515C26.1323 53.1621 27.1875 53.1621 27.8375 52.515L32.3167 47.5141C32.8896 46.8671 33.8667 46.7635 34.5563 47.2812L37.1552 49.1963C38.1969 50.2449 39.999 49.507 39.999 48.0317V19.8751C40 8.69339 30.7188 -0.325621 19.3854 0.0108259ZM13.3333 23.1876C11.4979 23.1876 10.0938 21.6991 10.0938 19.8741C10.0938 18.0491 11.5917 16.5606 13.3333 16.5606C15.075 16.5606 16.6667 18.0491 16.6667 19.8741C16.6667 21.6991 15.1667 23.1876 13.3333 23.1876ZM26.6667 23.1876C24.8313 23.1876 23.3333 21.6991 23.3333 19.8741C23.3333 18.0491 24.8313 16.5606 26.6667 16.5606C28.5021 16.5606 30 18.0491 30 19.8741C30 21.6991 28.5 23.1876 26.6667 23.1876Z" fill="#BCBCBC"/>
</svg>
