<svg id="comet" xmlns="http://www.w3.org/2000/svg" width="59.046" height="59.04" viewBox="0 0 59.046 59.04">
  <path id="Path_16444" data-name="Path 16444" d="M92.994,203.694l-5.839,5.695,1.37,8.03a1.754,1.754,0,0,1-2.552,1.86l-7.208-3.792-7.223,3.792a1.758,1.758,0,0,1-2.552-1.86l1.384-8.03-5.842-5.694a1.788,1.788,0,0,1-.447-1.811,1.75,1.75,0,0,1,1.428-1.2L73.57,199.5l3.6-7.323a1.838,1.838,0,0,1,1.484-1.081,1.766,1.766,0,0,1,1.572.98L83.85,199.4l8.044,1.182a1.753,1.753,0,0,1,1.428,1.2A1.867,1.867,0,0,1,92.994,203.694Z" transform="translate(-56.619 -169.061)" fill="#1768ac"/>
  <path id="Path_16445" data-name="Path 16445" d="M56.631.079C52.162,1.406,43.737,4.029,35,7.143c-.245-.807-.461-1.557-.649-2.149A1.863,1.863,0,0,0,33.28,3.826a1.824,1.824,0,0,0-1.572.072c-4.9,2.553-17.633,9.534-24.727,16.431-.13.115-.288.231-.4.346A22.466,22.466,0,1,0,38.35,52.445c.115-.115.231-.274.346-.4C45.6,44.934,52.582,32.193,55.13,27.315a1.852,1.852,0,0,0,.072-1.586,1.809,1.809,0,0,0-1.168-1.052c-.605-.187-1.341-.4-2.149-.649C55,15.263,57.623,6.844,58.964,2.37A1.862,1.862,0,0,0,58.489.524,1.926,1.926,0,0,0,56.631.079ZM36.368,34.63l-5.839,5.695,1.37,8.03a1.754,1.754,0,0,1-2.552,1.86l-7.208-3.792-7.223,3.792a1.758,1.758,0,0,1-2.552-1.86l1.384-8.03L7.9,34.63a1.788,1.788,0,0,1-.447-1.811,1.75,1.75,0,0,1,1.428-1.2l8.059-1.182,3.6-7.323a1.762,1.762,0,0,1,3.158,0l3.619,7.323,8.044,1.182a1.753,1.753,0,0,1,1.428,1.2A2.014,2.014,0,0,1,36.368,34.63Z" transform="translate(0.007 0.004)" fill="#1768ac" opacity="0.4"/>
</svg>
