<svg width="59" height="68" viewBox="0 0 59 68" fill="none" xmlns="http://www.w3.org/2000/svg">
<path d="M48.4906 34L33.2928 65.5828C32.9636 66.3 32.4237 66.9109 31.752 67.3359C31.0935 67.7742 30.3165 67.8805 29.5263 67.8805C28.723 67.8805 27.9591 67.7742 27.2875 67.3359C26.6158 66.9109 26.0891 66.3 25.7466 65.5828L10.5107 34H48.4906Z" fill="#E9724C"/>
<path opacity="0.4" d="M50.8875 21.8078C51.6513 22.1266 52.3493 22.5914 52.8234 23.1891C53.5214 23.7734 53.877 24.4773 54.3116 25.2477C54.6277 26.018 54.7989 26.8547 54.7989 27.6914C54.7989 28.5281 54.6409 29.3516 54.3248 30.1352C54.0087 30.9055 53.5478 31.4898 52.9551 32.1937C52.3757 32.7914 51.6777 33.2695 50.9138 33.5883C50.1368 33.907 49.3203 34.0797 48.4906 34.0797H10.5107C8.8342 34.0797 7.2275 33.4023 6.04355 32.1937C4.86092 30.9984 4.19848 29.3781 4.20112 27.6914C4.20507 25.9914 4.87409 24.3844 6.06199 23.1891C7.24989 21.9938 8.85922 21.3297 10.4172 21.3297H10.6661C10.5792 20.5992 10.5344 19.8555 10.5318 19.125C10.5318 14.0516 12.5296 9.18797 16.0801 5.60203C19.6359 2.01477 24.4692 0 29.3815 0C34.5308 0 39.3509 2.01477 42.9067 5.60203C46.4625 9.18797 48.3458 14.0516 48.3458 19.125C48.3458 19.8555 48.4116 20.5992 48.3326 21.3297H48.4643C49.294 21.3297 50.1105 21.4891 50.8875 21.8078Z" fill="#E9724C"/>
</svg>
