<svg width="88" height="70" viewBox="0 0 88 70" fill="none" xmlns="http://www.w3.org/2000/svg">
<g clip-path="url(#clip0_399_1814)">
<path d="M65.998 0.417816C69.3887 1.68985 71.1113 5.47286 69.8262 8.86621L66.0664 18.9082L44 21.6699L43.0156 21.5469C43.6445 20.3301 44 18.9629 44 17.5C44 12.667 40.0762 8.75 35.25 8.75C30.4238 8.75 26.5 12.667 26.5 17.5C26.5 18.1973 26.582 18.7441 26.7324 19.5098L17.7773 18.3887C17.7637 18.0879 17.75 17.8008 17.75 17.5C17.75 7.83535 25.584 3.05914e-05 35.25 3.05914e-05C44.7656 3.05914e-05 52.5039 7.59473 52.627 17.0488L57.5488 4.25879C58.8203 0.864749 62.5938 -0.854899 65.998 0.417816ZM32.5977 45.1309L44 26.127L55.4023 45.1309C56.4141 46.9492 58.4512 47.7422 60.3516 47.209L79 41.877V56.123C79 59.1309 76.9492 61.7559 74.0234 62.4941L46.1191 69.4668C44.7246 69.8223 43.2754 69.8223 41.8809 69.4668L13.9766 62.4941C11.0494 61.7559 9 59.1309 9 56.123V41.877L27.6484 47.209C29.5488 47.7422 31.5859 46.9492 32.5977 45.1309Z" fill="#151233"/>
<path opacity="0.4" d="M2.60705 34.6582L8.30822 23.2559C8.72248 22.4355 9.61525 21.957 10.5354 22.0664L44 26.1269L32.5977 45.1309C31.586 46.9492 29.5488 47.7422 27.6485 47.209L5.31818 40.8242C2.68498 40.0723 1.38246 37.1055 2.60705 34.6582ZM82.6778 40.8242L60.3516 47.209C58.4512 47.7422 56.4141 46.9492 55.4024 45.1309L44 26.1269L77.4688 22.0664C78.3848 21.957 79.2735 22.4355 79.6973 23.2559L85.3985 34.6582C86.6152 37.1055 85.3164 40.0723 82.6778 40.8242Z" fill="#151233"/>
</g>
<defs>
<clipPath id="clip0_399_1814">
<rect width="87.5" height="70" fill="white" transform="translate(0.25)"/>
</clipPath>
</defs>
</svg>
