<svg width="36" height="36" viewBox="0 0 36 36" fill="none" xmlns="http://www.w3.org/2000/svg">
<path opacity="0.4" d="M0 18C0 8.05781 8.05781 0 18 0C27.9422 0 36 8.05781 36 18C36 27.9422 27.9422 36 18 36C8.05781 36 0 27.9422 0 18ZM12.3047 14.632L15.6164 17.9367L12.3047 21.3047C11.6508 21.9656 11.6508 23.0344 12.3047 23.632C12.9656 24.3492 14.0344 24.3492 14.632 23.632L17.9367 20.3836L21.3047 23.632C21.9656 24.3492 23.0344 24.3492 23.632 23.632C24.3492 23.0344 24.3492 21.9656 23.632 21.3047L20.3836 17.9367L23.632 14.632C24.3492 14.0344 24.3492 12.9656 23.632 12.3047C23.0344 11.6508 21.9656 11.6508 21.3047 12.3047L17.9367 15.6164L14.632 12.3047C14.0344 11.6508 12.9656 11.6508 12.3047 12.3047C11.6508 12.9656 11.6508 14.0344 12.3047 14.632Z" fill="black"/>
</svg>
