<svg width="36" height="36" viewBox="0 0 36 36" fill="none" xmlns="http://www.w3.org/2000/svg">
<path opacity="0.4" d="M18 0C8.05781 0 0 8.05781 0 18C0 27.9422 8.05781 36 18 36C27.9422 36 36 27.9422 36 18C36 8.05781 27.9422 0 18 0ZM18 9C19.2424 9 20.25 10.0076 20.25 11.25C20.25 12.4924 19.2424 13.5 18 13.5C16.7576 13.5 15.75 12.4945 15.75 11.25C15.75 10.0055 16.7555 9 18 9ZM20.8125 27H15.1875C14.2594 27 13.5 26.2477 13.5 25.3125C13.5 24.3773 14.2559 23.625 15.1875 23.625H16.3125V19.125H15.75C14.8184 19.125 14.0625 18.3691 14.0625 17.4375C14.0625 16.5059 14.8219 15.75 15.75 15.75H18C18.9316 15.75 19.6875 16.5059 19.6875 17.4375V23.625H20.8125C21.7441 23.625 22.5 24.3809 22.5 25.3125C22.5 26.2441 21.7477 27 20.8125 27Z" fill="white"/>
</svg>
