<svg width="45" height="40" viewBox="0 0 45 40" fill="none" xmlns="http://www.w3.org/2000/svg">
<path d="M30 19.9297C30 24.6094 26.8438 28.75 22.5 28.75C18.1562 28.75 15 24.6094 15 19.9297C15 15.3203 18.1562 11.1797 22.5 11.1797C26.8438 11.1797 30 15.3203 30 19.9297ZM22.5 26.25C25.0547 26.25 27.5 23.6719 27.5 19.9297C27.5 16.2578 25.0547 13.6797 22.5 13.6797C19.9453 13.6797 17.5 16.2578 17.5 19.9297C17.5 23.6719 19.9453 26.25 22.5 26.25ZM0 32.9922V8.78908C0 6.92111 2.00078 5.68986 3.80156 6.18204C10.0312 7.88283 16.2656 6.29611 22.5 4.70705C29.2969 2.97501 36.0938 1.2422 42.8906 3.7797C44.2109 4.27267 45 5.59533 45 7.0047V31.211C45 33.0781 43 34.3125 41.1953 33.8203C34.9688 32.1172 28.7344 33.7031 22.5 35.2891C15.6328 37.0235 8.83594 38.7578 2.10703 36.2188C0.785937 35.7266 0 34.4063 0 32.9922ZM7.5 9.3047V9.33595C6.05469 9.22658 4.6 8.9922 3.14297 8.52345C2.97344 8.54689 2.76172 8.57814 2.60469 8.68751C2.53516 8.73439 2.50625 8.77345 2.42969 8.78126L2.5 8.78908V14.375C5.26172 14.375 7.5 12.1328 7.5 9.37501V9.3047ZM2.5 29.375V32.9922C2.5 33.5313 2.78594 33.8047 2.98125 33.875C4.47656 34.4375 5.97891 34.6953 7.5 34.9063V34.375C7.5 31.6172 5.26172 29.375 2.5 29.375ZM2.5 26.875C6.64219 26.875 10 30.1641 10 34.375V34.9922C13.4922 34.8516 17.1172 34.0781 21.0391 33.086C21.375 33 21.7109 32.9141 22.0547 32.8281C26.1016 31.7891 30.4844 30.6719 35 30.5938C35.0156 26.4688 38.3672 23.0547 42.5 23.0547V13.0547C38.2891 13.0547 35 9.76564 35 5.5547V5.00392C31.5078 5.07892 27.8828 5.92033 23.9609 6.91486C23.625 7.00001 23.2891 7.08673 22.9453 7.17345C18.8984 8.21095 14.5156 9.32814 9.92969 9.40626C9.98438 13.5313 6.63125 16.8047 2.5 16.8047V26.875ZM42.3984 31.3125C42.4688 31.2656 42.4922 31.2266 42.5 31.2188C42.5 31.2188 42.5 31.2188 42.5 31.211V25.625C39.7422 25.625 37.5 27.8672 37.5 30.625V30.6641C38.9453 30.7735 40.3984 31.0078 41.8594 31.4063C42.0234 31.4531 42.2344 31.4219 42.3984 31.3125ZM42.5 10.5547V7.0047C42.5 6.47033 42.2109 6.19455 42.0156 6.12189C40.5234 5.56329 39.0234 5.23751 37.5 5.09142V5.5547C37.5 8.38283 39.7422 10.5547 42.5 10.5547Z" fill="black"/>
</svg>
