<svg width="68" height="55" viewBox="0 0 68 55" fill="none" xmlns="http://www.w3.org/2000/svg">
<g clip-path="url(#clip0_7143_4205)">
<path d="M33.4369 11.7194C33.83 12.6437 33.5219 13.6106 32.7781 14.3756L30.4194 16.4794C30.5362 17.2019 30.6 17.9456 30.6 18.6044C30.6 19.4544 30.5362 20.1981 30.4194 20.9206L32.7781 23.0244C33.5219 23.6937 33.83 24.6606 33.4369 25.6806C33.1925 26.1481 32.9269 26.7962 32.6294 27.3275L32.3 27.9012C31.8856 28.4325 31.6306 28.9425 31.2587 29.4419C30.6531 30.2494 29.5906 30.515 28.6344 30.1962L25.6275 29.2081C24.4906 30.1537 23.1944 30.9081 21.7812 31.4394L21.0481 34.5206C20.9312 35.5087 20.1662 36.295 19.1675 36.4225C18.4556 36.5075 17.7331 36.55 17 36.55C16.2669 36.55 15.5444 36.5075 14.8325 36.4225C13.8337 36.295 12.9731 35.5087 12.8562 34.5206L12.1231 31.4394C10.8056 30.9081 9.50937 30.1537 8.36719 29.2081L5.36881 30.1962C4.41362 30.515 3.349 30.2494 2.74337 29.4419C2.36725 28.9425 2.01662 28.4219 1.69362 27.8906L1.37275 27.3275C1.07631 26.7962 0.80665 26.2437 0.565675 25.6806C0.172125 24.6606 0.473663 23.6937 1.224 23.0244L3.58062 20.9206C3.46162 20.1981 3.30437 19.4544 3.30437 18.6044C3.30437 17.9456 3.46162 17.2019 3.58062 16.4794L1.224 14.3756C0.473663 13.6106 0.172125 12.6437 0.565675 11.7194C0.80665 11.0606 1.07631 10.6027 1.37169 10.0682L1.69469 9.51041C2.01662 8.97385 2.36725 8.45535 2.74337 7.95704C3.349 7.15485 4.41362 6.88816 5.36881 7.20266L8.36719 8.19079C9.50937 7.25154 10.8056 6.49504 12.1231 5.96591L12.8562 2.87723C12.9731 1.89123 13.8337 1.10179 14.8325 0.980769C15.5444 0.894388 16.2669 0.849976 17 0.849976C17.7331 0.849976 18.4556 0.894388 19.1675 0.980663C20.1662 1.10179 20.9312 1.89123 21.0481 2.87723L21.7812 5.96591C23.1944 6.49504 24.4906 7.25154 25.6275 8.19079L28.6344 7.20266C29.5906 6.88816 30.6531 7.15485 31.2587 7.95704C31.6306 8.45323 31.8856 8.9696 32.3 9.50298L32.6294 10.0757C32.9269 10.608 33.1925 11.1562 33.4369 11.7194ZM17 23.7044C19.8156 23.7044 22.1 21.5156 22.1 18.6044C22.1 15.8844 19.8156 13.5044 17 13.5044C14.1844 13.5044 11.9 15.8844 11.9 18.6044C11.9 21.5156 14.1844 23.7044 17 23.7044Z" fill="#2C5A86"/>
<path opacity="0.4" d="M56.2806 53.8369C55.2606 54.23 54.2937 53.9219 53.6244 53.1782L51.5206 50.8194C50.7981 50.9363 50.0544 51 49.3 51C48.5456 51 47.8019 50.9363 47.0794 50.8194L44.9756 53.1782C44.2106 53.9219 43.2437 54.23 42.3194 53.8369C41.7562 53.5925 41.2037 53.3269 40.6725 53.0294L40.0987 52.7C39.5675 52.2857 39.0575 52.0307 38.5581 51.6588C37.7506 51.0532 37.485 49.9907 37.8037 49.0344L38.7919 46.0275C37.8462 44.8907 37.0919 43.5944 36.5606 42.1813L33.4794 41.4482C32.4912 41.3313 31.705 40.5663 31.5775 39.5675C31.4925 38.8557 31.45 38.1332 31.45 37.4C31.45 36.6669 31.4925 35.9444 31.5775 35.2325C31.705 34.2338 32.4912 33.3732 33.4794 33.2563L36.5606 32.5232C37.0919 31.2057 37.8462 29.9094 38.7919 28.7725L37.8037 25.7657C37.485 24.8094 37.7506 23.7469 38.5581 23.1413C39.0575 22.7694 39.5781 22.3232 40.1094 22.0894L40.6725 21.7707C41.2037 21.4732 41.6606 21.2075 42.3194 20.9632C43.2437 20.57 44.2106 20.8782 44.9756 21.6219L47.0794 23.9807C47.8019 23.8638 48.5456 23.8 49.3 23.8C50.0544 23.8 50.7981 23.8638 51.5206 23.9807L53.6244 21.6219C54.2937 20.8782 55.2606 20.57 56.2806 20.9632C56.8437 21.2075 57.3962 21.4732 57.9275 21.7707L58.4906 22.0894C59.0219 22.3232 59.5425 22.7694 60.0419 23.1413C60.8494 23.7469 61.115 24.8094 60.7962 25.7657L59.8081 28.7725C60.7538 29.9094 61.5081 31.2057 62.0394 32.5232L65.1206 33.2563C66.1088 33.3732 66.895 34.2338 67.0225 35.2325C67.1075 35.9444 67.15 36.6669 67.15 37.4C67.15 38.1332 67.1075 38.8557 67.0225 39.5675C66.895 40.5663 66.1088 41.3313 65.1206 41.4482L62.0394 42.1813C61.5081 43.5944 60.7538 44.8907 59.8081 46.0275L60.7962 49.0344C61.115 49.9907 60.8494 51.0532 60.0419 51.6588C59.5425 52.0307 59.0325 52.2857 58.5012 52.7L57.9275 53.0294C57.3962 53.3269 56.7481 53.5925 56.2806 53.8369ZM44.2 37.4C44.2 40.2157 46.4844 42.5 49.3 42.5C52.1156 42.5 54.4 40.2157 54.4 37.4C54.4 34.5844 52.1156 32.3 49.3 32.3C46.4844 32.3 44.2 34.5844 44.2 37.4Z" fill="#2C5A86"/>
</g>
<defs>
<clipPath id="clip0_7143_4205">
<rect width="68" height="54.4" fill="white"/>
</clipPath>
</defs>
</svg>
