<svg width="36" height="32" viewBox="0 0 36 32" fill="none" xmlns="http://www.w3.org/2000/svg">
<path opacity="0.4" d="M35.5987 27.3203L20.6011 1.72656C19.4529 -0.242188 16.5553 -0.242188 15.3994 1.72656L0.408736 27.3203C-0.745092 29.282 0.692025 31.75 3.00467 31.75H33C35.3034 31.75 36.7448 29.2891 35.5987 27.3203ZM16.312 9.8125C16.312 8.88086 17.0679 8.125 17.9995 8.125C18.9312 8.125 19.687 8.88437 19.687 9.8125V18.8125C19.687 19.7441 18.9312 20.5 18.0628 20.5C17.1944 20.5 16.312 19.7477 16.312 18.8125V9.8125ZM17.9995 27.25C16.7789 27.25 15.7889 26.26 15.7889 25.0394C15.7889 23.8188 16.7782 22.8288 17.9995 22.8288C19.2208 22.8288 20.2101 23.8188 20.2101 25.0394C20.2073 26.2586 19.223 27.25 17.9995 27.25Z" fill="black"/>
</svg>
