<svg width="17" height="20" viewBox="0 0 17 20" fill="none" xmlns="http://www.w3.org/2000/svg">
<path d="M13.6941 10.5457C13.6855 8.96875 14.3988 7.77852 15.8426 6.90195C15.0348 5.74609 13.8145 5.11016 12.2031 4.98555C10.6777 4.86523 9.01055 5.875 8.40039 5.875C7.75586 5.875 6.27773 5.02852 5.11758 5.02852C2.71992 5.06719 0.171875 6.94063 0.171875 10.752C0.171875 11.8777 0.378125 13.0408 0.790625 14.241C1.34063 15.818 3.32578 19.6852 5.39688 19.6207C6.47969 19.5949 7.24453 18.8516 8.65391 18.8516C10.0203 18.8516 10.7293 19.6207 11.9367 19.6207C14.025 19.5906 15.8211 16.0758 16.3453 14.4945C13.5438 13.1754 13.6941 10.6273 13.6941 10.5457ZM11.2621 3.49023C12.4352 2.09805 12.3277 0.830469 12.2934 0.375C11.2578 0.435156 10.059 1.07969 9.37578 1.87461C8.62383 2.72539 8.18125 3.77813 8.27578 4.96406C9.39727 5.05 10.4199 4.47422 11.2621 3.49023Z" fill="#757575"/>
</svg>
