<svg width="119" height="118" viewBox="0 0 119 118" fill="none" xmlns="http://www.w3.org/2000/svg">
<rect width="119" height="118" rx="59" fill="#F5F5FA"/>
<path d="M53.2063 98.4937C53.7748 98.7314 54.3761 98.876 54.9859 98.9389L73.7452 100.853C74.1499 100.893 74.5531 100.946 74.9562 101.001C78.1461 101.437 80.6234 99.3239 81.1553 96.3625L91.9238 33.5144C92.3264 31.1992 91.1079 28.8834 88.9834 28.0384C88.7652 27.9519 88.5469 27.884 88.3334 27.8358L66.0404 27.7241C63.4948 27.7241 62.0019 29.7366 61.5113 32.2128L50.2067 93.1563C49.7897 95.2618 50.5362 97.3777 53.2063 98.4937Z" fill="url(#paint0_linear_226_813)"/>
<path d="M53.8425 97.5525L74.2224 99.928C77.106 100.264 79.7396 98.1406 80.2482 95.0692L90.7497 31.8734C91.1565 29.4163 89.2324 27.3749 86.9119 27.3749L66.532 26.9412C64.1999 26.9412 62.1936 28.7165 61.7443 31.1779L50.5133 92.6866C50.0826 95.0445 51.6217 97.2935 53.8425 97.5525Z" fill="url(#paint1_linear_226_813)"/>
<path d="M53.8294 97.5525L74.1287 99.928C77.0012 100.264 79.6237 98.1406 80.1307 95.0692L90.5898 31.8734C90.9951 29.4163 89.2452 27.1602 86.9342 27.1602L66.468 26.9412C64.1449 26.9412 62.147 28.7165 61.6994 31.1779L50.5134 92.6866C50.0848 95.0445 51.6175 97.2935 53.8294 97.5525Z" fill="url(#paint2_linear_226_813)"/>
<path d="M53.4118 97.5525L73.8516 99.928C76.7437 100.264 79.3847 98.1406 79.8949 95.0692L90.4271 31.8734C90.835 29.4163 89.0734 27.1602 86.7461 27.1602L66.1384 26.9412C63.7994 26.9412 61.7872 28.7165 61.3364 31.1779L50.0726 92.6866C49.6408 95.0445 51.1841 97.2935 53.4118 97.5525Z" fill="#231F20"/>
<path d="M54.5429 96.6885L73.5506 98.6631C76.4178 99.0475 78.5555 97.3511 78.9661 94.1164L89.1598 32.7759C89.8575 29.2056 87.706 28.3814 85.5418 28.3814L66.3778 28.1689C64.2025 28.1689 62.638 29.7805 62.2184 32.1675L51.5909 91.8061C51.0224 94.9833 52.4714 96.4371 54.5429 96.6879V96.6885Z" fill="#D0D1E9"/>
<path d="M71.9209 32.2541H78.1433C79.0397 32.2541 79.7666 31.5028 79.7666 30.5762V30.1847C79.7666 29.6289 79.3306 29.1782 78.7928 29.1782H72.2733C71.3917 29.1782 70.677 29.9169 70.677 30.8281V30.9678C70.677 31.678 71.2343 32.2541 71.9215 32.2541H71.9209Z" fill="#231F20"/>
<path d="M72.2032 31.1295C72.4245 31.0924 72.5747 30.8769 72.5388 30.6483C72.5029 30.4196 72.2944 30.2643 72.0732 30.3014C71.852 30.3386 71.7017 30.554 71.7376 30.7827C71.7735 31.0114 71.982 31.1666 72.2032 31.1295Z" fill="#414042"/>
<path d="M72.1382 30.7361C72.1382 30.8106 72.1965 30.8713 72.269 30.8713C72.3416 30.8713 72.3999 30.8106 72.3999 30.7361C72.3999 30.6616 72.3416 30.6008 72.269 30.6008C72.1965 30.6008 72.1382 30.6616 72.1382 30.7361Z" fill="#231F20"/>
<path d="M87.6055 54.7209L87.8375 54.7604C88.0351 54.7943 88.2222 54.6558 88.2545 54.4515L89.3146 47.8102C89.3644 47.4987 89.1604 47.2051 88.859 47.1537C88.5718 47.1049 88.3011 47.3053 88.2534 47.6021L87.2087 54.1487C87.1652 54.4198 87.3432 54.676 87.6055 54.7209Z" fill="#231F20"/>
<path d="M87.7225 54.7413C87.9694 54.7834 88.202 54.6109 88.2428 54.3557L89.2584 47.9937C89.2992 47.7385 89.1323 47.4981 88.8854 47.456L88.8722 47.4538C88.6311 47.4127 88.4033 47.5814 88.3636 47.8305L87.3469 54.1997C87.3061 54.4565 87.4741 54.6991 87.7225 54.7413Z" fill="#565556"/>
<path d="M88.3535 47.8924L87.3543 54.1514C87.3294 54.3086 87.4078 54.48 87.4794 54.589C87.4327 54.4887 87.3686 54.3436 87.3893 54.2149L88.3885 47.9559C88.4112 47.8141 88.4759 47.693 88.5622 47.6125C88.6486 47.532 88.7572 47.4915 88.8669 47.5101C88.9935 47.5315 89.1 47.6131 89.172 47.7286C89.1021 47.5791 88.9813 47.4718 88.8319 47.4466C88.7222 47.428 88.6142 47.4685 88.5273 47.549C88.4409 47.6295 88.3758 47.7505 88.3535 47.8924Z" fill="url(#paint3_linear_226_813)"/>
<rect x="23.604" y="20" width="49" height="49" rx="12" fill="#151233"/>
<path d="M50.1332 33.5817C46.4959 33.5817 46.8541 33.6094 43.2166 33.6094V41.7604H51.263V49.829C61.431 48.7825 61.0453 33.5817 50.1332 33.5817Z" fill="white"/>
<path d="M37.5947 41.7599V55.4185H51.2625V49.8289H43.2163V41.7599H37.5947Z" fill="white"/>
<defs>
<linearGradient id="paint0_linear_226_813" x1="77.1734" y1="26.5167" x2="64.2506" y2="99.4126" gradientUnits="userSpaceOnUse">
<stop stop-color="#565758"/>
<stop offset="0.03" stop-color="#A0A2A4"/>
<stop offset="0.06" stop-color="#121619"/>
<stop offset="0.09" stop-color="#2F3336"/>
<stop offset="0.51" stop-color="#4B4D4F"/>
<stop offset="0.75" stop-color="#494B4D"/>
<stop offset="0.84" stop-color="#424547"/>
<stop offset="0.9" stop-color="#373B3E"/>
<stop offset="0.92" stop-color="#2A2E31"/>
<stop offset="0.93" stop-color="#202427"/>
<stop offset="0.97" stop-color="#696D70"/>
<stop offset="1" stop-color="#1D2124"/>
</linearGradient>
<linearGradient id="paint1_linear_226_813" x1="50.4413" y1="63.4518" x2="90.8042" y2="63.4518" gradientUnits="userSpaceOnUse">
<stop stop-color="#565758"/>
<stop offset="0.03" stop-color="#A0A2A4"/>
<stop offset="0.06" stop-color="#121619"/>
<stop offset="0.09" stop-color="#2F3336"/>
<stop offset="0.51" stop-color="#4B4D4F"/>
<stop offset="0.75" stop-color="#494B4D"/>
<stop offset="0.84" stop-color="#424547"/>
<stop offset="0.9" stop-color="#373B3E"/>
<stop offset="0.92" stop-color="#2A2E31"/>
<stop offset="0.93" stop-color="#202427"/>
<stop offset="0.97" stop-color="#696D70"/>
<stop offset="1" stop-color="#1D2124"/>
</linearGradient>
<linearGradient id="paint2_linear_226_813" x1="90.6486" y1="63.4518" x2="50.4414" y2="63.4518" gradientUnits="userSpaceOnUse">
<stop stop-color="#C1BDBC"/>
<stop offset="0.04" stop-color="#1F1A14"/>
<stop offset="0.07" stop-color="#999589"/>
<stop offset="0.51" stop-color="#A1998E"/>
<stop offset="0.71" stop-color="#9F978C"/>
<stop offset="0.79" stop-color="#989085"/>
<stop offset="0.84" stop-color="#8C847A"/>
<stop offset="0.88" stop-color="#7B746B"/>
<stop offset="0.9" stop-color="#716A61"/>
<stop offset="0.91" stop-color="#645D55"/>
<stop offset="0.92" stop-color="#423D36"/>
<stop offset="0.93" stop-color="#2F2A24"/>
<stop offset="0.96" stop-color="#C2BEB5"/>
<stop offset="1" stop-color="#6B6863"/>
</linearGradient>
<linearGradient id="paint3_linear_226_813" x1="88.6967" y1="51.1073" x2="87.923" y2="50.984" gradientUnits="userSpaceOnUse">
<stop stop-color="#C1BDBC"/>
<stop offset="0.04" stop-color="#1F1A14"/>
<stop offset="0.07" stop-color="#999589"/>
<stop offset="0.51" stop-color="#A1998E"/>
<stop offset="0.71" stop-color="#9F978C"/>
<stop offset="0.79" stop-color="#989085"/>
<stop offset="0.84" stop-color="#8C847A"/>
<stop offset="0.88" stop-color="#7B746B"/>
<stop offset="0.9" stop-color="#716A61"/>
<stop offset="0.91" stop-color="#645D55"/>
<stop offset="0.92" stop-color="#423D36"/>
<stop offset="0.93" stop-color="#2F2A24"/>
<stop offset="0.96" stop-color="#C2BEB5"/>
<stop offset="1" stop-color="#6B6863"/>
</linearGradient>
</defs>
</svg>
