<svg width="50" height="40" viewBox="0 0 50 40" fill="none" xmlns="http://www.w3.org/2000/svg">
<g clip-path="url(#clip0_172_552)">
<path d="M24.9922 25C29.4773 25 33.0469 21.3625 33.0469 16.875C33.0469 12.3875 29.4109 8.75 24.9922 8.75C20.507 8.75 16.9375 12.3875 16.9375 16.875C16.8672 21.3594 20.5078 25 24.9922 25ZM24.9922 11.25C28.0922 11.25 30.6141 13.7734 30.6141 16.875C30.6141 19.9766 28.0859 22.5 24.9922 22.5C21.8984 22.5 19.3672 19.9766 19.3672 16.875C19.3672 13.7734 21.8906 11.25 24.9922 11.25ZM28.8984 27.5H21.1016C14.9688 27.5 10 32.1641 10 37.9141C10 39.0703 10.9922 40 12.2188 40H37.7812C39.0078 40 40 39.0703 40 37.9141C40 32.1641 35.0312 27.5 28.8984 27.5ZM12.5156 37.5C12.7516 33.3273 16.5148 30 21.0391 30H28.8984C33.4906 30 37.25 33.3273 37.4219 37.5H12.5156ZM40 12.5C43.4516 12.5 46.25 9.70156 46.25 6.25C46.25 2.79844 43.4531 0 40 0C36.5484 0 33.75 2.79844 33.75 6.25C33.75 9.70156 36.5469 12.5 40 12.5ZM40 2.5C42.068 2.5 43.75 4.18203 43.75 6.25C43.75 8.31797 42.0703 10 40 10C37.9297 10 36.25 8.31797 36.25 6.25C36.25 4.18203 37.9297 2.5 40 2.5ZM10 12.5C13.4516 12.5 16.25 9.70156 16.25 6.25C16.25 2.79844 13.4531 0 10 0C6.54844 0 3.75 2.79844 3.75 6.25C3.75 9.70156 6.54844 12.5 10 12.5ZM10 2.5C12.068 2.5 13.75 4.18203 13.75 6.25C13.75 8.31797 12.0703 10 10 10C7.92969 10 6.25 8.32031 6.25 6.25C6.25 4.17969 7.92969 2.5 10 2.5ZM43.8359 15H38.75C37.8781 15 37.025 15.1953 36.2133 15.5811C35.5895 15.8777 35.3234 16.6233 35.62 17.2459C35.9166 17.8686 36.6653 18.1358 37.2848 17.8392C37.7578 17.6172 38.25 17.5 38.75 17.5H43.8344C45.7891 17.5 47.5 19.2734 47.5 21.4609V22.5C47.5 23.1909 48.0591 23.75 48.75 23.75C49.4409 23.75 50 23.1875 50 22.5V21.4609C50 17.8984 47.2344 15 43.8359 15ZM12.7188 17.8359C13.3389 18.1326 14.0883 17.8652 14.3836 17.2427C14.6802 16.6201 14.4141 15.8739 13.7903 15.5778C12.9766 15.1953 12.125 15 11.25 15H6.16562C2.76641 15 0 17.8984 0 21.4609V22.5C0 23.1909 0.559062 23.75 1.25 23.75C1.94094 23.75 2.5 23.1875 2.5 22.5V21.4609C2.5 19.2734 4.14453 17.5 6.16562 17.5H11.25C11.75 17.5 12.2422 17.6172 12.7188 17.8359Z" fill="#212121"/>
</g>
<defs>
<clipPath id="clip0_172_552">
<rect width="50" height="40" fill="white"/>
</clipPath>
</defs>
</svg>
