<svg xmlns="http://www.w3.org/2000/svg" width="69.996" height="70" viewBox="0 0 69.996 70">
  <g id="rocket-launch" transform="translate(0 0)">
    <path id="Path_16437" data-name="Path 16437" d="M132.839,53.739A15.257,15.257,0,0,0,118.4,39.519c2.934-6.568,8.008-17.36,12.177-23.517C141.807-.558,158.537-1.117,168.519.723a3.865,3.865,0,0,1,3.126,3.124c1.837,9.988,1.289,26.717-15.276,37.948-6.13,4.141-16.88,9.064-23.531,11.944ZM154.82,12.067a5.485,5.485,0,1,0,5.485,5.485A5.484,5.484,0,0,0,154.82,12.067Z" transform="translate(-102.373 0)" fill="#151233"/>
    <path id="Path_16438" data-name="Path 16438" d="M3.167,151.666a3.259,3.259,0,0,1-2.745-1.673,3.3,3.3,0,0,1,.055-3.332l7.237-11.9A9.88,9.88,0,0,1,16.153,130h11.08a204.027,204.027,0,0,0-10.984,21.666Zm49.091,14.563a9.782,9.782,0,0,1-4.635,8.447l-11.9,7.227a3.294,3.294,0,0,1-3.332.055,3.4,3.4,0,0,1-1.8-2.866V165.9c6.143-2.605,15.536-6.9,21.666-10.751ZM22.831,176.623C16.043,183.41.065,182.313.065,182.313s-1.1-16.1,5.691-22.763a12.073,12.073,0,0,1,17.075,17.072Zm-6.4-10.668a4.026,4.026,0,0,0-5.68,0c-2.257,2.263-1.892,7.569-1.892,7.569s5.309.37,7.572-1.892A4.022,4.022,0,0,0,16.427,165.954Z" transform="translate(0 -112.383)" fill="#151233" opacity="0.4"/>
  </g>
</svg>
