<svg width="119" height="118" viewBox="0 0 119 118" fill="none" xmlns="http://www.w3.org/2000/svg">
<rect width="119" height="118" rx="59" fill="#F5F5FA"/>
<g clip-path="url(#clip0_226_809)">
<path d="M61.0175 83.1159H29.8653C24.4215 83.1159 21.0219 77.223 23.7438 72.5114L45.7476 34.3993C48.4695 29.6849 55.2716 29.6849 57.9908 34.3993L69.0961 53.6322L56.5482 75.3666C54.5612 78.8098 57.0435 83.1132 61.0202 83.1132L61.0175 83.1159Z" fill="#151233"/>
<path d="M72.6182 47.5297L56.5453 75.3693C54.5583 78.8125 57.0434 83.1158 61.0174 83.1158H93.1631C97.1371 83.1158 99.6222 78.8125 97.6352 75.3693L81.5623 47.5297C79.5753 44.0865 74.6051 44.0865 72.6182 47.5297Z" fill="#F295B3"/>
<path d="M41.936 56.5953C45.7277 52.8037 45.7277 46.6563 41.936 42.8647C38.1444 39.073 31.997 39.073 28.2054 42.8647C24.4138 46.6563 24.4138 52.8037 28.2054 56.5953C31.997 60.3869 38.1444 60.3869 41.936 56.5953Z" fill="#6785D2"/>
</g>
<defs>
<clipPath id="clip0_226_809">
<rect width="100" height="100" fill="white" transform="translate(9.5 9)"/>
</clipPath>
</defs>
</svg>
