<svg width="68" height="68" viewBox="0 0 68 68" fill="none" xmlns="http://www.w3.org/2000/svg">
<g clip-path="url(#clip0_7143_4188)">
<path d="M34 27.625C36.3468 27.625 38.25 25.7218 38.25 23.375C38.25 21.0282 36.3468 19.125 34 19.125H29.75V12.75C29.75 10.4032 27.8468 8.5 25.5 8.5H8.5C3.80508 8.5 0 12.3051 0 17V38.25H10.625V34C10.625 31.6532 12.5282 29.75 14.875 29.75C17.2218 29.75 19.125 31.6532 19.125 34V38.25H29.75V27.625H34ZM55.25 38.25H48.875V42.5C48.875 44.8468 46.9718 46.75 44.625 46.75C42.2782 46.75 40.375 44.8468 40.375 42.5V38.25H29.75V48.875H25.5C23.1532 48.875 21.25 50.7782 21.25 53.125C21.25 55.4718 23.1532 57.375 25.5 57.375H29.75V68H51C55.6949 68 59.5 64.1949 59.5 59.5V42.5C59.5 40.1492 57.6008 38.25 55.25 38.25Z" fill="#785589"/>
<path opacity="0.4" d="M19.125 34C19.125 31.6532 17.2218 29.75 14.875 29.75C12.5282 29.75 10.625 31.6532 10.625 34V38.25H0V59.5C0 64.1949 3.80508 68 8.5 68H29.75V57.375H25.5C23.1532 57.375 21.25 55.4718 21.25 53.125C21.25 50.7782 23.1532 48.875 25.5 48.875H29.75V38.25H19.125V34ZM59.5 0H46.75C44.4032 0 42.5 1.9032 42.5 4.25V8.5H46.75C49.0968 8.5 51 10.4032 51 12.75C51 15.0968 49.0968 17 46.75 17H42.5V25.5H51V27.625C51 29.9718 52.9032 31.875 55.25 31.875C57.5968 31.875 59.5 29.9718 59.5 27.625V25.5H63.75C66.0968 25.5 68 23.5968 68 21.25V8.5C68 3.80508 64.1883 0 59.5 0Z" fill="#785589"/>
</g>
<defs>
<clipPath id="clip0_7143_4188">
<rect width="68" height="68" fill="white"/>
</clipPath>
</defs>
</svg>
