<svg width="119" height="118" viewBox="0 0 119 118" fill="none" xmlns="http://www.w3.org/2000/svg">
<rect width="119" height="118" rx="59" fill="#F5F5FA"/>
<g clip-path="url(#clip0_226_867)">
<path d="M38.5582 88.7794L24.5914 68.8016C24.4831 68.647 24.4064 68.4725 24.3657 68.2882C24.3249 68.1039 24.3208 67.9133 24.3538 67.7275C24.3867 67.5416 24.4559 67.3641 24.5575 67.205C24.6591 67.0459 24.791 66.9083 24.9458 66.8003L44.9235 52.8335C45.1564 52.6705 45.4324 52.5802 45.7166 52.5742C46.0008 52.5681 46.2804 52.6465 46.52 52.7995C46.7596 52.9524 46.9484 53.173 47.0626 53.4333C47.1768 53.6936 47.2111 53.9819 47.1613 54.2618L45.9091 61.3336L60.0526 63.8381C60.8028 63.971 61.4696 64.3964 61.9061 65.0209C62.3427 65.6453 62.5133 66.4176 62.3804 67.1678L59.8759 81.3113C59.743 82.0616 59.3176 82.7283 58.6931 83.1648C58.0687 83.6014 57.2965 83.772 56.5462 83.6391L42.4027 81.1346L41.1504 88.2064C41.101 88.4863 40.9697 88.7453 40.7731 88.9506C40.5765 89.1558 40.3234 89.2982 40.0458 89.3595C39.7683 89.4209 39.4788 89.3985 39.214 89.2952C38.9491 89.1919 38.7209 89.0124 38.5582 88.7794Z" fill="#6785D2"/>
<path d="M80.4418 29.2208L94.4086 49.1985C94.5169 49.3532 94.5936 49.5276 94.6343 49.7119C94.6751 49.8962 94.6792 50.0868 94.6462 50.2726C94.6133 50.4585 94.5441 50.6361 94.4425 50.7952C94.3409 50.9543 94.209 51.0918 94.0542 51.1998L74.0765 65.1666C73.8436 65.3296 73.5676 65.4199 73.2834 65.4259C72.9992 65.432 72.7196 65.3536 72.48 65.2007C72.2404 65.0477 72.0516 64.8271 71.9374 64.5668C71.8232 64.3065 71.7889 64.0182 71.8387 63.7383L73.0909 56.6665L58.9474 54.162C58.1972 54.0291 57.5304 53.6037 57.0939 52.9793C56.6573 52.3548 56.4867 51.5826 56.6196 50.8323L59.1241 36.6888C59.257 35.9386 59.6824 35.2718 60.3069 34.8353C60.9313 34.3987 61.7035 34.2281 62.4538 34.361L76.5973 36.8656L77.8496 29.7938C77.899 29.5138 78.0303 29.2548 78.2269 29.0496C78.4235 28.8443 78.6766 28.702 78.9542 28.6406C79.2317 28.5793 79.5212 28.6016 79.786 28.7049C80.0509 28.8082 80.2791 28.9877 80.4418 29.2208Z" fill="#151233"/>
</g>
<defs>
<clipPath id="clip0_226_867">
<rect width="100" height="100" fill="white" transform="translate(9.5 9)"/>
</clipPath>
</defs>
</svg>
