<svg width="48" height="48" viewBox="0 0 48 48" fill="none" xmlns="http://www.w3.org/2000/svg">
    <rect y="0.5" width="48" height="48" rx="24" fill="#D0D1E9" />
    <path
        d="M32.4844 23.5156H30.9844V19.4844C30.9844 18.9531 30.7812 18.5 30.375 18.125C30 17.7188 29.5469 17.5156 29.0156 17.5156H24.9844V16.0156C24.9844 15.3281 24.7344 14.7344 24.2344 14.2344C23.7656 13.7344 23.1875 13.4844 22.5 13.4844C21.8125 13.4844 21.2188 13.7344 20.7188 14.2344C20.25 14.7344 20.0156 15.3281 20.0156 16.0156V17.5156H15.9844C15.4531 17.5156 14.9844 17.7188 14.5781 18.125C14.2031 18.5 14.0156 18.9531 14.0156 19.4844V23.2812H15.5156C16.2656 23.2812 16.8906 23.5469 17.3906 24.0781C17.9219 24.6094 18.1875 25.25 18.1875 26C18.1875 26.75 17.9219 27.3906 17.3906 27.9219C16.8906 28.4531 16.2656 28.7188 15.5156 28.7188H14.0156V32.5156C14.0156 33.0469 14.2031 33.5 14.5781 33.875C14.9844 34.2812 15.4531 34.4844 15.9844 34.4844H19.7812V32.9844C19.7812 32.2344 20.0469 31.6094 20.5781 31.1094C21.1094 30.5781 21.75 30.3125 22.5 30.3125C23.25 30.3125 23.8906 30.5781 24.4219 31.1094C24.9531 31.6094 25.2188 32.2344 25.2188 32.9844V34.4844H29.0156C29.5469 34.4844 30 34.2812 30.375 33.875C30.7812 33.5 30.9844 33.0469 30.9844 32.5156V28.4844H32.4844C33.1719 28.4844 33.7656 28.25 34.2656 27.7812C34.7656 27.2812 35.0156 26.6875 35.0156 26C35.0156 25.3125 34.7656 24.7344 34.2656 24.2656C33.7656 23.7656 33.1719 23.5156 32.4844 23.5156Z"
        fill="#989AC1" />
</svg>