<svg id="projector" xmlns="http://www.w3.org/2000/svg" width="72.444" height="57.955" viewBox="0 0 72.444 57.955">
  <path id="Path_16426" data-name="Path 16426" d="M103.844,160a18.111,18.111,0,1,0,18.111,18.111A18.11,18.11,0,0,0,103.844,160Zm0,28.978a10.867,10.867,0,1,1,10.867-10.867A10.866,10.866,0,0,1,103.844,188.978ZM67.622,174.489a3.622,3.622,0,1,0,3.622,3.622A3.623,3.623,0,0,0,67.622,174.489Z" transform="translate(-56.756 -141.889)" fill="#151233"/>
  <path id="Path_16427" data-name="Path 16427" d="M57.955,15.394a2.706,2.706,0,0,0,1.921-.8L66.215,8.26a2.717,2.717,0,0,0-3.842-3.842l-6.339,6.339a2.716,2.716,0,0,0,0,3.842A2.673,2.673,0,0,0,57.955,15.394ZM36.324,21.733H5.433A5.435,5.435,0,0,0,0,27.166V45.277a5.435,5.435,0,0,0,5.433,5.433H7.244l1.472,5.872a1.8,1.8,0,0,0,1.754,1.372h4.415a1.8,1.8,0,0,0,1.754-1.372l1.472-5.872H36.324a17.961,17.961,0,0,1,0-28.978ZM10.867,39.844a3.622,3.622,0,1,1,3.622-3.622A3.63,3.63,0,0,1,10.867,39.844Zm10.867,0a3.622,3.622,0,1,1,3.622-3.622A3.63,3.63,0,0,1,21.733,39.844ZM31.706,4.418A2.717,2.717,0,1,0,27.864,8.26L34.2,14.6a3.081,3.081,0,0,0,2.019.8,2.717,2.717,0,0,0,1.921-4.638ZM67.011,21.733H57.855a18,18,0,0,1-3.064,30.823L55.8,56.583a1.806,1.806,0,0,0,1.755,1.372h4.415a1.8,1.8,0,0,0,1.755-1.372L65.2,50.711h1.811a5.435,5.435,0,0,0,5.433-5.433V27.166A5.435,5.435,0,0,0,67.011,21.733ZM47.088,0a2.717,2.717,0,0,0-2.717,2.717v9.055a2.717,2.717,0,1,0,5.433,0V2.717A2.714,2.714,0,0,0,47.088,0Z" fill="#151233" opacity="0.4"/>
</svg>
