<svg id="plateau_logo-navy" xmlns="http://www.w3.org/2000/svg" xmlns:xlink="http://www.w3.org/1999/xlink" width="205.03" height="36" viewBox="0 0 205.03 36">
  <defs>
    <clipPath id="clip-path">
      <rect id="Rectangle_3619" data-name="Rectangle 3619" width="205.03" height="36" fill="#151233"/>
    </clipPath>
  </defs>
  <g id="Group_2390" data-name="Group 2390" clip-path="url(#clip-path)">
    <path id="Path_9327" data-name="Path 9327" d="M34.332,0c-6,0-5.407.046-11.4.046V13.484H36.2v13.3C52.961,25.06,52.325,0,34.332,0" transform="translate(-13.659 0)" fill="#151233"/>
    <path id="Path_9328" data-name="Path 9328" d="M0,33.377V55.9H22.536V46.68H9.269v-13.3Z" transform="translate(0 -19.895)" fill="#151233"/>
    <path id="Path_9329" data-name="Path 9329" d="M126.762,27.825c4.63,0,7.491,2.5,7.491,6.472,0,4.132-3.017,6.705-7.829,6.705h-2.393v4.5h-4.4V27.825Zm-.078,9.33c1.925,0,3.2-1.117,3.2-2.859,0-1.585-1.275-2.6-3.2-2.6h-2.653v5.458Z" transform="translate(-71.27 -16.585)" fill="#151233"/>
    <path id="Path_9330" data-name="Path 9330" d="M190.163,45.5H177.028V27.825h4.4v13.8h8.74Z" transform="translate(-105.461 -16.585)" fill="#151233"/>
    <path id="Path_9331" data-name="Path 9331" d="M234.161,42.3l-1.17,3.04h-4.682l7.517-17.777h4.213l7.492,17.777h-4.682l-1.2-3.04Zm3.746-9.616-2.289,5.874H240.2Z" transform="translate(-136.011 -16.432)" fill="#151233"/>
    <path id="Path_9332" data-name="Path 9332" d="M297.774,31.75V45.5H293.4V31.75H287.76V27.826h15.658V31.75Z" transform="translate(-171.428 -16.586)" fill="#151233"/>
    <path id="Path_9333" data-name="Path 9333" d="M352.51,34.868h7.855v3.743H352.51v3.067h8.974V45.5H348.115V27.825h13.369v3.82H352.51Z" transform="translate(-207.383 -16.586)" fill="#151233"/>
    <path id="Path_9334" data-name="Path 9334" d="M406.854,42.3l-1.17,3.04H401l7.517-17.777h4.214l7.491,17.777h-4.682l-1.2-3.04Zm3.746-9.616-2.289,5.874h4.578Z" transform="translate(-238.889 -16.432)" fill="#151233"/>
    <path id="Path_9335" data-name="Path 9335" d="M482.9,37.26c0,5.484-3.173,8.628-8.245,8.628-5.046,0-8.219-3.145-8.219-8.628V27.826h4.422v9.512c0,2.7,1.483,4.444,3.8,4.444s3.824-1.741,3.824-4.444V27.826H482.9Z" transform="translate(-277.871 -16.586)" fill="#151233"/>
  </g>
</svg>
