<svg width="68" height="55" viewBox="0 0 68 55" fill="none" xmlns="http://www.w3.org/2000/svg">
<g clip-path="url(#clip0_7143_4192)">
<path d="M3.1875e-05 49.3V29.4418C3.1875e-05 28.0181 0.599994 26.6475 1.65431 25.6806L16.9575 11.6556C18.9019 9.87164 21.8981 9.87164 23.8425 11.6556L39.1425 25.6806C40.205 26.6475 40.8 28.0181 40.8 29.4418V49.3C40.8 52.1156 38.5156 54.4 35.7 54.4H5.1C2.28331 54.4 3.1875e-05 52.1156 3.1875e-05 49.3ZM17.85 28.9C16.4369 28.9 15.3 30.0368 15.3 31.45V36.55C15.3 37.9631 16.4369 39.1 17.85 39.1H22.95C24.3631 39.1 25.5 37.9631 25.5 36.55V31.45C25.5 30.0368 24.3631 28.9 22.95 28.9H17.85Z" fill="#E9724C"/>
<path opacity="0.4" d="M34 5.1C34 2.28331 36.2844 0 39.1 0H62.9C65.7156 0 68 2.28331 68 5.1V49.3C68 52.1156 65.7156 54.4 62.9 54.4H42.5C43.5625 52.9763 44.2 51.2125 44.2 49.3V37.4H45.9C46.835 37.4 47.6 36.635 47.6 35.7V32.3C47.6 31.365 46.835 30.6 45.9 30.6H44.2V29.4419C44.2 28.6769 44.0938 27.9225 43.9025 27.2H45.9C46.835 27.2 47.6 26.435 47.6 25.5V22.1C47.6 21.165 46.835 20.4 45.9 20.4H42.5C41.565 20.4 40.8 21.165 40.8 22.1V22.5888L34 16.3519V5.1ZM56.1 20.4C55.165 20.4 54.4 21.165 54.4 22.1V25.5C54.4 26.435 55.165 27.2 56.1 27.2H59.5C60.435 27.2 61.2 26.435 61.2 25.5V22.1C61.2 21.165 60.435 20.4 59.5 20.4H56.1ZM54.4 35.7C54.4 36.635 55.165 37.4 56.1 37.4H59.5C60.435 37.4 61.2 36.635 61.2 35.7V32.3C61.2 31.365 60.435 30.6 59.5 30.6H56.1C55.165 30.6 54.4 31.365 54.4 32.3V35.7ZM40.8 15.3C40.8 16.235 41.565 17 42.5 17H45.9C46.835 17 47.6 16.235 47.6 15.3V11.9C47.6 10.965 46.835 10.2 45.9 10.2H42.5C41.565 10.2 40.8 10.965 40.8 11.9V15.3ZM56.1 10.2C55.165 10.2 54.4 10.965 54.4 11.9V15.3C54.4 16.235 55.165 17 56.1 17H59.5C60.435 17 61.2 16.235 61.2 15.3V11.9C61.2 10.965 60.435 10.2 59.5 10.2H56.1Z" fill="#E9724C"/>
</g>
<defs>
<clipPath id="clip0_7143_4192">
<rect width="68" height="54.4" fill="white"/>
</clipPath>
</defs>
</svg>
