<svg width="35" height="40" viewBox="0 0 35 40" fill="none" xmlns="http://www.w3.org/2000/svg">
<path d="M6.875 11.25C6.875 10.2109 7.71484 9.375 8.75 9.375C9.78906 9.375 10.625 10.2109 10.625 11.25C10.625 12.2891 9.78906 13.125 8.75 13.125C7.71484 13.125 6.875 12.2891 6.875 11.25ZM2.34375e-05 6.25C2.34375e-05 4.17891 1.67891 2.5 3.75 2.5H15.4297C16.7578 2.5 18.0234 3.02656 18.9609 3.96484L32.7109 17.7109C34.6641 19.6641 34.6641 22.8359 32.7109 24.7891L22.2891 35.2109C20.3359 37.1641 17.1641 37.1641 15.2109 35.2109L1.46484 21.4609C0.526797 20.5234 0 19.2578 0 17.9297L2.34375e-05 6.25ZM3.23203 19.6953L16.9844 33.4453C17.9609 34.4219 19.5391 34.4219 20.5156 33.4453L30.9453 23.0156C31.9219 22.0391 31.9219 20.4609 30.9453 19.4844L17.1953 5.73203C16.7266 5.26328 16.0234 5 15.4297 5H3.75C3.05938 5 2.5 5.55938 2.5 6.25V17.9297C2.5 18.5234 2.76328 19.2266 3.23203 19.6953Z" fill="black"/>
</svg>
