<svg width="68" height="68" viewBox="0 0 68 68" fill="none" xmlns="http://www.w3.org/2000/svg">
<g clip-path="url(#clip0_7143_4183)">
<path d="M54.7984 15.8578C49.7343 10.0552 42.3021 6.37366 34 6.37366C18.7399 6.37366 6.49454 18.7385 6.49454 33.8791C6.49454 42.1852 10.1748 49.6174 15.9774 54.6776C21.1624 52.2179 29.3649 45.8588 37.732 37.4916C45.9797 29.2453 52.3414 21.0508 54.7984 15.8578ZM59.5133 23.4148C55.2673 29.5282 49.6148 36.2777 42.9383 42.9515C36.2618 49.6254 29.5109 55.2779 23.4016 59.5266C26.6634 60.8826 30.2374 61.629 33.9907 61.629C49.2509 61.629 61.4962 49.2641 61.4962 34.1235C61.5055 30.2414 60.868 26.6687 59.5133 23.4148Z" fill="#007C77"/>
<path opacity="0.4" d="M42.9516 42.9516C24.8359 61.0672 6.13594 71.7321 1.20859 66.7914C-1.9125 63.6743 1.20726 55.0774 8.49203 44.5985C9.31932 46.58 10.4444 48.3743 11.6862 50.0929C10.3837 52.7253 10.0074 54.6484 10.8363 55.4771C13.3013 57.9421 25.2996 49.9482 37.6246 37.6139C49.9522 25.2862 57.9449 13.2959 55.4879 10.8256C54.6591 9.99682 52.736 10.3732 50.1036 11.6757C48.3851 10.4342 46.5908 9.30898 44.6092 8.48156C55.0947 1.1968 63.6943 -1.92297 66.8022 1.19812C71.732 6.13463 61.0539 24.7164 42.9516 42.9516Z" fill="#007C77"/>
</g>
<defs>
<clipPath id="clip0_7143_4183">
<rect width="68" height="68" fill="white"/>
</clipPath>
</defs>
</svg>
