<svg width="24" height="24" viewBox="0 0 20 20" fill="none" xmlns="http://www.w3.org/2000/svg">
<mask id="mask0_9545_2227" style="mask-type:alpha" maskUnits="userSpaceOnUse" x="0" y="0" width="20" height="20">
<rect width="20" height="20" fill="#D9D9D9"/>
</mask>
<g mask="url(#mask0_9545_2227)">
<path d="M3.3335 12.5C2.63905 12.5 2.04877 12.257 1.56266 11.7709C1.07655 11.2847 0.833496 10.6945 0.833496 10C0.833496 9.30558 1.07655 8.7153 1.56266 8.22919C2.04877 7.74308 2.63905 7.50002 3.3335 7.50002V5.83335C3.3335 5.37502 3.49669 4.98266 3.82308 4.65627C4.14947 4.32988 4.54183 4.16669 5.00016 4.16669H7.50016C7.50016 3.47224 7.74322 2.88196 8.22933 2.39585C8.71544 1.90974 9.30572 1.66669 10.0002 1.66669C10.6946 1.66669 11.2849 1.90974 11.771 2.39585C12.2571 2.88196 12.5002 3.47224 12.5002 4.16669H15.0002C15.4585 4.16669 15.8509 4.32988 16.1772 4.65627C16.5036 4.98266 16.6668 5.37502 16.6668 5.83335V7.50002C17.3613 7.50002 17.9516 7.74308 18.4377 8.22919C18.9238 8.7153 19.1668 9.30558 19.1668 10C19.1668 10.6945 18.9238 11.2847 18.4377 11.7709C17.9516 12.257 17.3613 12.5 16.6668 12.5V15.8334C16.6668 16.2917 16.5036 16.684 16.1772 17.0104C15.8509 17.3368 15.4585 17.5 15.0002 17.5H5.00016C4.54183 17.5 4.14947 17.3368 3.82308 17.0104C3.49669 16.684 3.3335 16.2917 3.3335 15.8334V12.5ZM7.50016 10.8334C7.84739 10.8334 8.14252 10.7118 8.38558 10.4688C8.62864 10.2257 8.75016 9.93058 8.75016 9.58335C8.75016 9.23613 8.62864 8.94099 8.38558 8.69794C8.14252 8.45488 7.84739 8.33335 7.50016 8.33335C7.15294 8.33335 6.8578 8.45488 6.61475 8.69794C6.37169 8.94099 6.25016 9.23613 6.25016 9.58335C6.25016 9.93058 6.37169 10.2257 6.61475 10.4688C6.8578 10.7118 7.15294 10.8334 7.50016 10.8334ZM12.5002 10.8334C12.8474 10.8334 13.1425 10.7118 13.3856 10.4688C13.6286 10.2257 13.7502 9.93058 13.7502 9.58335C13.7502 9.23613 13.6286 8.94099 13.3856 8.69794C13.1425 8.45488 12.8474 8.33335 12.5002 8.33335C12.1529 8.33335 11.8578 8.45488 11.6147 8.69794C11.3717 8.94099 11.2502 9.23613 11.2502 9.58335C11.2502 9.93058 11.3717 10.2257 11.6147 10.4688C11.8578 10.7118 12.1529 10.8334 12.5002 10.8334ZM6.66683 14.1667H13.3335V12.5H6.66683V14.1667Z" fill="white"/>
</g>
</svg>
