<svg width="68" height="55" viewBox="0 0 68 55" fill="none" xmlns="http://www.w3.org/2000/svg">
<g clip-path="url(#clip0_7143_4196)">
<path d="M68 37.4V42.5C68 44.3807 66.4806 45.9 64.6 45.9C64.6 39.3232 59.2769 34 52.7 34C46.1231 34 40.8 39.3232 40.8 45.9H27.2C27.2 39.3232 21.8769 34 15.3 34C8.72738 34 3.4 39.3232 3.4 45.9C1.52256 45.9 0 44.3807 0 42.5V30.6C0 27.7207 1.78606 25.2663 4.3095 24.2675L8.73375 13.2069C10.2829 9.33942 14.0356 6.80005 18.2006 6.80005H37.5275C40.63 6.80005 43.4669 8.20892 45.4963 10.625L56.1213 23.9063C62.815 24.6607 68 30.4725 68 37.4ZM18.2006 13.6C16.8088 13.6 15.5656 14.3544 15.045 15.7357L11.8256 23.8H23.8V13.6H18.2006ZM28.9 23.8H47.3238L40.1838 14.875C39.5463 14.0675 38.4731 13.6 37.5275 13.6H28.9V23.8Z" fill="#2C5A86"/>
<path opacity="0.4" d="M23.8 13.6V23.8H11.8256L15.045 15.7356C15.5656 14.3544 16.8088 13.6 18.2006 13.6H23.8ZM28.9 13.6H37.5275C38.4731 13.6 39.5463 14.0675 40.1838 14.875L47.3238 23.8H28.9V13.6ZM23.8 45.9C23.8 50.5962 19.9963 54.4 15.3 54.4C10.6059 54.4 6.8 50.5962 6.8 45.9C6.8 41.2037 10.6059 37.4 15.3 37.4C19.9963 37.4 23.8 41.2037 23.8 45.9ZM44.2 45.9C44.2 41.2037 48.0038 37.4 52.7 37.4C57.3963 37.4 61.2 41.2037 61.2 45.9C61.2 50.5962 57.3963 54.4 52.7 54.4C48.0038 54.4 44.2 50.5962 44.2 45.9Z" fill="#2C5A86"/>
</g>
<defs>
<clipPath id="clip0_7143_4196">
<rect width="68" height="54.4" fill="white"/>
</clipPath>
</defs>
</svg>
