<svg width="119" height="118" viewBox="0 0 119 118" fill="none" xmlns="http://www.w3.org/2000/svg">
<rect width="119" height="118" rx="59" fill="#F5F5FA"/>
<g clip-path="url(#clip0_226_863)">
<path d="M96.6472 48.503C96.5792 47.6401 96.0076 46.9107 95.2019 46.6004C92.5997 45.6041 90.3841 43.6063 89.181 40.8571C87.978 38.1053 88.0133 35.1248 89.0477 32.539C89.3689 31.7388 89.2219 30.8215 88.6339 30.1873C87.8691 29.3625 87.0607 28.5868 86.2169 27.8601C85.5527 27.2885 84.6164 27.1796 83.8134 27.5334C81.2794 28.6576 78.3098 28.8073 75.5198 27.7158C72.7271 26.6243 70.6476 24.4958 69.548 21.9426C69.2023 21.137 68.4401 20.5844 67.5637 20.5517C66.4531 20.5136 65.3372 20.5327 64.2185 20.6198C63.3556 20.6851 62.6262 21.2594 62.3159 22.0678C61.3196 24.6727 59.3218 26.8911 56.5645 28.0969C53.8072 29.3027 50.8185 29.2646 48.2273 28.2221C47.4243 27.9009 46.507 28.0479 45.8728 28.6358C45.0535 29.3952 44.2832 30.1982 43.5619 31.0338C42.9876 31.7007 42.8787 32.6397 43.2353 33.4427C44.3676 35.9822 44.5228 38.96 43.4286 41.7554C42.3316 44.5562 40.195 46.6385 37.6364 47.7354C36.828 48.0838 36.27 48.8459 36.24 49.7278C36.2019 50.8302 36.2237 51.9407 36.3081 53.0513C36.3734 53.9141 36.9477 54.6463 37.7588 54.9566C40.1732 55.8739 42.2554 57.654 43.5102 60.101C43.6599 59.9649 43.8015 59.8234 43.9376 59.6737C44.3077 59.2654 44.8821 59.0993 45.4101 59.2627C46.0851 59.4695 46.7438 59.7118 47.3862 59.9894C47.8843 60.2044 48.2191 60.6889 48.2355 61.2333C48.2872 63.0053 49.0275 64.7555 50.432 66.0538C51.8393 67.3494 53.6412 67.9455 55.4077 67.8557C55.9493 67.8285 56.4583 68.1252 56.7142 68.6042C57.0435 69.2248 57.3402 69.8645 57.6015 70.5232C57.8029 71.0349 57.6859 71.6174 57.3076 72.0202C56.902 72.453 56.5536 72.9375 56.2732 73.4628C56.6733 73.569 57.0735 73.6969 57.4681 73.8548C60.2663 74.949 62.3458 77.0802 63.4482 79.6388C63.7938 80.4472 64.5587 80.9998 65.4379 81.0324C66.543 81.0705 67.6535 81.0488 68.7668 80.9644C69.6296 80.8991 70.3618 80.3247 70.6694 79.5163C71.6656 76.9088 73.6635 74.6877 76.4208 73.4819C79.1182 72.3006 82.0306 72.3142 84.5783 73.2832C85.4929 73.6343 86.5299 73.422 87.2376 72.7442C87.9834 72.0338 88.8843 71.1465 89.4206 70.5177C89.9786 69.8699 90.1228 68.9472 89.7717 68.1687C88.6203 65.6156 88.4597 62.6215 89.5621 59.8098C90.6536 57.0198 92.7794 54.9403 95.3271 53.8433C96.1328 53.4949 96.6853 52.7328 96.718 51.8564C96.7561 50.7458 96.737 49.6271 96.6499 48.5057L96.6472 48.503ZM72.1283 63.7048C64.9942 66.8268 56.6815 63.5741 53.5622 56.44C50.4402 49.3059 53.6956 40.9932 60.827 37.8739C67.9611 34.7519 76.2738 38.0046 79.3931 45.1387C82.5151 52.2728 79.2597 60.5855 72.1283 63.7048Z" fill="#151233"/>
<path fill-rule="evenodd" clip-rule="evenodd" d="M55.4702 76.955C55.5491 78.8576 56.3956 80.5452 57.7021 81.7347L57.7076 81.7319C58.1158 82.1048 58.2792 82.6764 58.1186 83.2018C57.9117 83.8795 57.6667 84.5409 57.3891 85.1833C57.1741 85.6814 56.6896 86.0189 56.1479 86.0353C54.3787 86.087 52.6312 86.8246 51.3329 88.2318C50.0345 89.6391 49.4411 91.4437 49.531 93.2156C49.5582 93.7573 49.2615 94.2663 48.7824 94.5222C47.8842 95.0012 46.9424 95.4095 45.9625 95.7416H45.9598C44.6451 94.1601 42.6364 93.1857 40.4235 93.2755C38.5181 93.3517 36.8251 94.201 35.6356 95.5129C35.2655 95.9239 34.6939 96.0872 34.1658 95.9267C33.4935 95.7225 32.8375 95.4803 32.1979 95.2054C31.6998 94.9903 31.3623 94.5058 31.3459 93.9615C31.2942 92.1841 30.5566 90.4284 29.1466 89.1301C27.734 87.829 25.9239 87.2356 24.1492 87.3309C23.6048 87.3608 23.0931 87.0641 22.8373 86.5824C22.5106 85.9699 22.2167 85.3357 21.9581 84.6852C21.7539 84.1735 21.8737 83.5883 22.252 83.1854C23.466 81.8952 24.1764 80.1369 24.1002 78.2289C24.024 76.3181 23.1721 74.6223 21.8601 73.4356C21.4491 73.0654 21.2831 72.4911 21.4464 71.963C21.6505 71.2907 21.8928 70.6347 22.1677 69.9978C22.3827 69.4997 22.8699 69.1622 23.4143 69.1459C25.1917 69.0969 26.9473 68.3592 28.2484 66.9493C29.5467 65.5393 30.1401 63.7293 30.0476 61.9573C30.0176 61.4157 30.3143 60.9039 30.7961 60.6481C31.4113 60.3214 32.0482 60.0275 32.7014 59.7689C33.2159 59.5648 33.7984 59.6845 34.2012 60.0629C35.4887 61.2741 37.2443 61.9845 39.1523 61.9083C41.0577 61.8321 42.7507 60.9829 43.9375 59.6736C44.3076 59.2626 44.8792 59.0993 45.4073 59.2599C46.0823 59.4668 46.741 59.709 47.3834 59.9867C47.8788 60.2017 48.2163 60.6862 48.2326 61.2278C48.2843 62.9998 49.022 64.75 50.4292 66.0483C51.8337 67.3467 53.6383 67.9401 55.4048 67.8502C55.9465 67.823 56.4555 68.1197 56.7113 68.5988C57.0407 69.2166 57.3374 69.8563 57.5987 70.515C57.8028 71.0267 57.6831 71.6092 57.3074 72.012C56.1016 73.2995 55.3939 75.0524 55.4702 76.955ZM42.9736 73.1347C45.4347 74.9006 45.9983 78.3272 44.2324 80.7883C42.4665 83.2494 39.0399 83.813 36.5788 82.0471C34.1177 80.2813 33.5541 76.8546 35.32 74.3935C37.0858 71.9324 40.5125 71.3688 42.9736 73.1347Z" fill="#C1A5D5"/>
<path fill-rule="evenodd" clip-rule="evenodd" d="M46.2032 33.2493C46.2456 34.2704 46.6999 35.1761 47.4011 35.8145L47.404 35.813C47.6231 36.0132 47.7108 36.3199 47.6246 36.6019C47.5136 36.9656 47.3821 37.3206 47.2331 37.6653C47.1177 37.9327 46.8577 38.1138 46.567 38.1226C45.6175 38.1503 44.6796 38.5462 43.9828 39.3014C43.286 40.0567 42.9676 41.0252 43.0158 41.9762C43.0304 42.2669 42.8712 42.54 42.6141 42.6773C42.132 42.9344 41.6266 43.1536 41.1007 43.3318H41.0992C40.3936 42.4831 39.3156 41.9601 38.1279 42.0083C37.1054 42.0492 36.1968 42.505 35.5584 43.2091C35.3597 43.4297 35.053 43.5173 34.7696 43.4311C34.4087 43.3216 34.0567 43.1915 33.7134 43.044C33.4461 42.9286 33.2649 42.6686 33.2562 42.3764C33.2284 41.4225 32.8325 40.4803 32.0758 39.7835C31.3177 39.0852 30.3463 38.7668 29.3938 38.8179C29.1016 38.834 28.827 38.6748 28.6897 38.4162C28.5144 38.0875 28.3566 37.7471 28.2179 37.398C28.1083 37.1234 28.1726 36.8093 28.3756 36.5931C29.0271 35.9007 29.4084 34.957 29.3675 33.933C29.3266 32.9075 28.8694 31.9974 28.1653 31.3605C27.9447 31.1619 27.8556 30.8536 27.9432 30.5702C28.0528 30.2094 28.1828 29.8574 28.3303 29.5155C28.4457 29.2482 28.7072 29.0671 28.9994 29.0583C29.9533 29.032 30.8955 28.6361 31.5938 27.8794C32.2906 27.1227 32.609 26.1513 32.5594 25.2003C32.5433 24.9096 32.7025 24.635 32.9611 24.4977C33.2912 24.3224 33.6331 24.1646 33.9836 24.0258C34.2597 23.9163 34.5723 23.9806 34.7885 24.1836C35.4795 24.8337 36.4217 25.2149 37.4457 25.174C38.4683 25.1331 39.3769 24.6774 40.0138 23.9747C40.2125 23.7541 40.5193 23.6665 40.8027 23.7527C41.1649 23.8637 41.5185 23.9937 41.8632 24.1427C42.1291 24.2581 42.3102 24.5181 42.319 24.8088C42.3467 25.7598 42.7426 26.6991 43.4978 27.3959C44.2516 28.0927 45.2201 28.4112 46.1682 28.363C46.4589 28.3484 46.732 28.5076 46.8694 28.7647C47.0461 29.0963 47.2054 29.4396 47.3456 29.7931C47.4551 30.0677 47.3909 30.3803 47.1893 30.5965C46.5421 31.2875 46.1623 32.2282 46.2032 33.2493ZM39.4965 31.1989C40.8174 32.1466 41.1198 33.9857 40.1721 35.3065C39.2244 36.6273 37.3854 36.9298 36.0646 35.9821C34.7437 35.0344 34.4413 33.1953 35.389 31.8745C36.3367 30.5537 38.1757 30.2512 39.4965 31.1989Z" fill="#6785D2"/>
</g>
<defs>
<clipPath id="clip0_226_863">
<rect width="100" height="100" fill="white" transform="translate(9.5 9)"/>
</clipPath>
</defs>
</svg>
