<svg xmlns="http://www.w3.org/2000/svg" width="119" height="116" viewBox="0 0 119 116">
  <g id="no_results_found" data-name="no results found" transform="translate(-437 -247)">
    <rect id="Rectangle_7537" data-name="Rectangle 7537" width="119" height="116" rx="16" transform="translate(437 247)" fill="#f5f5f5"/>
    <g id="person-dolly-empty" transform="translate(459.551 269.559)">
      <path id="Path_16442" data-name="Path 16442" d="M0,176.526a4.418,4.418,0,0,0,4.432,4.432,4.392,4.392,0,0,0,4.431-4.306V166.335c-2.215-1.9-8.793-7.574-8.863-7.643Zm19.384-18.691L13.293,152.6V141.773l3.179,5.949a4.431,4.431,0,0,0,3.907,2.343l10.467,0-2.352-8.871H23.081l-4.611-8.543a8.866,8.866,0,0,0-7.842-4.749H6.647A6.647,6.647,0,0,0,0,134.546v14.261a8.908,8.908,0,0,0,3.1,6.733l10.524,9.019,1.956,12.809c.138.779,1.4,4.241,5.09,3.634a4.427,4.427,0,0,0,3.652-5.088l-1.956-12.808A8.866,8.866,0,0,0,19.384,157.834Z" transform="translate(0 -110.192)" fill="#bcbcbc"/>
      <path id="Path_16443" data-name="Path 16443" d="M97.282,51.755a1.1,1.1,0,0,0-1.35-.779l-21.35,5.713a8.828,8.828,0,0,0-5.66-3.394L60.7,22.6a1.1,1.1,0,0,0-1.368-.765L55.053,22.97a1.138,1.138,0,0,0-.789,1.371l8.17,30.46a8.844,8.844,0,1,0,13.85,8.31L97.633,57.4a1.1,1.1,0,0,0,.8-1.35ZM67.542,64.119a2.215,2.215,0,0,1,0-4.431A2.231,2.231,0,0,1,69.757,61.9,2.13,2.13,0,0,1,67.542,64.119ZM38.647,13.293A6.647,6.647,0,1,0,32,6.647,6.648,6.648,0,0,0,38.647,13.293Z" transform="translate(-27.569)" fill="#bcbcbc" opacity="0.4"/>
    </g>
  </g>
</svg>
