<svg width="35" height="40" viewBox="0 0 35 40" fill="none" xmlns="http://www.w3.org/2000/svg">
<g clip-path="url(#clip0_172_550)">
<path d="M17.5 20C23.0234 20 27.5 15.5227 27.5 10C27.5 4.47734 23.0234 0 17.5 0C11.9766 0 7.5 4.47734 7.5 10C7.5 15.5227 11.9766 20 17.5 20ZM17.5 2.5C21.6359 2.5 25 5.86406 25 10C25 14.1352 21.6359 17.5 17.5 17.5C13.3641 17.5 10 14.1328 10 10C10 5.86406 13.3672 2.5 17.5 2.5ZM21.4609 23.75H13.5391C6.06328 23.75 0 29.8125 0 37.2891C0 38.7844 1.2125 39.9977 2.70781 39.9977H32.2937C33.7891 40 35 38.7891 35 37.2891C35 29.8125 28.9375 23.75 21.4609 23.75ZM32.2891 37.5H2.70781C2.59375 37.5 2.5 37.4062 2.5 37.2891C2.5 31.2031 7.45313 26.25 13.5391 26.25H21.4531C27.5469 26.25 32.5 31.2031 32.5 37.2891C32.5 37.4062 32.4062 37.5 32.2891 37.5Z" fill="#212121"/>
</g>
<defs>
<clipPath id="clip0_172_550">
<rect width="35" height="40" fill="white"/>
</clipPath>
</defs>
</svg>
