<svg width="183" height="38" viewBox="0 0 183 38" fill="none" xmlns="http://www.w3.org/2000/svg">
<path d="M21.6708 0.999939C15.6744 0.999939 16.2649 1.04558 10.2681 1.04558V14.4835H23.5334V27.7852C40.2963 26.06 39.6605 0.999939 21.6708 0.999939Z" stroke="white" stroke-width="2"/>
<path d="M1 14.4824V37.0001H23.5326V27.785H10.2677V14.4824H1Z" stroke="white" stroke-width="2"/>
<path d="M62.026 18.848C64.21 19.264 65.276 20.642 65.276 22.436C65.276 25.738 62.234 28 57.892 28H50.352L53.472 10.32H60.674C63.872 10.32 65.848 11.802 65.848 14.116C65.848 16.352 64.392 18.224 62.026 18.848ZM60.284 12.14H55.214L54.148 18.146H58.828C61.896 18.146 63.82 16.742 63.82 14.61C63.82 13.102 62.546 12.14 60.284 12.14ZM58.126 26.18C61.246 26.18 63.248 24.594 63.248 22.514C63.248 20.876 61.818 19.992 59.296 19.992H53.81L52.718 26.18H58.126ZM79.7487 15.936H81.7247L79.5927 28H77.6167L77.8507 26.726C76.5767 27.714 75.0427 28.286 73.3007 28.286C70.2067 28.286 68.1007 26.05 68.1007 22.93C68.1007 18.952 71.7147 15.65 75.5367 15.65C77.2787 15.65 78.6047 16.222 79.5147 17.21L79.7487 15.936ZM73.8727 26.544C75.4587 26.544 76.9927 25.894 78.2407 24.438L79.1247 19.498C78.3707 18.042 77.0967 17.392 75.5107 17.392C72.6767 17.392 70.1287 19.862 70.1287 22.67C70.1287 24.906 71.6367 26.544 73.8727 26.544ZM89.6366 26.492C91.5086 26.492 93.0946 25.478 93.7446 23.892H95.7986C94.8626 26.518 92.2366 28.312 89.2986 28.312C85.5286 28.312 83.4746 25.634 84.0986 21.968C84.7486 18.406 87.8946 15.65 91.5606 15.65C94.4726 15.65 96.4486 17.418 96.4746 20.07H94.4206C94.3166 18.484 93.0946 17.47 91.2226 17.47C88.6226 17.47 86.5426 19.472 86.1006 21.968C85.6326 24.542 87.0366 26.492 89.6366 26.492ZM111.643 15.936L105.585 20.98L110.447 28H107.899L103.947 22.332L101.009 24.802L100.437 28H98.4605L101.711 9.54H103.687L101.477 22.15L109.069 15.936H111.643ZM120.458 15.624C123.656 15.624 125.84 17.938 125.84 21.032C125.84 25.088 122.226 28.312 118.222 28.312C114.998 28.312 112.814 26.05 112.814 22.956C112.814 18.874 116.428 15.624 120.458 15.624ZM118.534 26.492C121.368 26.492 123.838 24.126 123.838 21.292C123.838 19.134 122.382 17.444 120.146 17.444C117.312 17.444 114.816 19.862 114.816 22.696C114.816 24.88 116.272 26.492 118.534 26.492ZM137.117 11.048C135.453 11.048 134.179 12.192 133.867 13.908L133.503 15.936H138.365L138.053 17.626H133.217L131.397 28H129.421L131.241 17.626H127.731L128.043 15.936H131.527L131.891 13.882C132.385 11.074 134.491 9.228 137.117 9.228C137.845 9.228 138.729 9.332 139.587 9.592L139.015 11.36C138.391 11.152 137.637 11.048 137.117 11.048ZM152.2 15.936L150.094 28H148.118L149.938 17.626H142.84L141.02 28H139.044L140.864 17.626H137.354L137.666 15.936H141.15L141.514 13.882C142.008 11.074 144.114 9.228 146.74 9.228C147.468 9.228 148.352 9.332 149.21 9.592L148.638 11.36C148.014 11.152 147.26 11.048 146.74 11.048C145.076 11.048 143.802 12.192 143.49 13.908L143.126 15.936H152.2ZM160.248 26.492C162.12 26.492 163.706 25.478 164.356 23.892H166.41C165.474 26.518 162.848 28.312 159.91 28.312C156.14 28.312 154.086 25.634 154.71 21.968C155.36 18.406 158.506 15.65 162.172 15.65C165.084 15.65 167.06 17.418 167.086 20.07H165.032C164.928 18.484 163.706 17.47 161.834 17.47C159.234 17.47 157.154 19.472 156.712 21.968C156.244 24.542 157.648 26.492 160.248 26.492ZM181.321 22.566H171.259C171.103 24.828 172.403 26.544 174.951 26.544C176.433 26.544 177.785 25.946 178.409 24.984H180.619C179.553 27.038 177.187 28.312 174.613 28.312C170.765 28.312 168.737 25.452 169.335 21.968C169.959 18.38 173.105 15.65 176.719 15.65C180.333 15.65 182.257 18.354 181.321 22.566ZM176.511 17.34C174.067 17.34 172.221 18.978 171.519 21.162H179.605C179.865 18.718 178.721 17.34 176.511 17.34Z" fill="white"/>
</svg>
