<svg width="68" height="55" viewBox="0 0 68 55" fill="none" xmlns="http://www.w3.org/2000/svg">
<g clip-path="url(#clip0_7143_4213)">
<path d="M49.3 10.2H18.7C14.0037 10.2 10.2 14.0037 10.2 18.7V47.6C10.2 51.3591 13.2409 54.4 17 54.4H51C54.7591 54.4 57.8 51.3591 57.8 47.6V18.7C57.8 14.0037 54.0069 10.2 49.3 10.2ZM27.2 44.2H20.4V40.8H27.2V44.2ZM23.8 31.45C21.4519 31.45 19.55 29.5481 19.55 27.2C19.55 24.8518 21.4519 22.95 23.8 22.95C26.1481 22.95 28.05 24.8518 28.05 27.2C28.05 29.5481 26.1481 31.45 23.8 31.45ZM37.4 44.2H30.6V40.8H37.4V44.2ZM47.6 44.2H40.8V40.8H47.6V44.2ZM44.2 31.45C41.8497 31.45 39.95 29.5502 39.95 27.2C39.95 24.8497 41.8519 22.95 44.2 22.95C46.5481 22.95 48.45 24.8518 48.45 27.2C48.45 29.5481 46.5481 31.45 44.2 31.45Z" fill="#785589"/>
<path opacity="0.4" d="M4.39663 24.7988C3.75913 25.4363 3.4 26.2969 3.4 27.2V40.8C3.4 41.7031 3.7586 42.5659 4.3961 43.2034C5.0336 43.8409 5.89688 44.2 6.8 44.2H10.2V23.8H6.8C5.89688 23.8 5.03413 24.1613 4.39663 24.7988ZM63.6013 24.7988C62.9638 24.1613 62.1031 23.8 61.2 23.8H57.8V44.2H61.2C62.1031 44.2 62.9659 43.8414 63.6034 43.2039C64.2409 42.5664 64.6 41.7031 64.6 40.8V27.2C64.6 26.2969 64.2388 25.4363 63.6013 24.7988ZM34 0C32.13 0 30.6 1.52787 30.6 3.4V10.2H37.4V3.4C37.4 1.52787 35.87 0 34 0ZM20.4 44.2H27.2V40.8H20.4V44.2ZM30.6 44.2H37.4V40.8H30.6V44.2ZM40.8 44.2H47.6V40.8H40.8V44.2Z" fill="#785589"/>
</g>
<defs>
<clipPath id="clip0_7143_4213">
<rect width="68" height="54.4" fill="white"/>
</clipPath>
</defs>
</svg>
