<svg xmlns="http://www.w3.org/2000/svg" width="100" height="80" viewBox="0 0 100 80" fill="none">
  <g clip-path="url(#clip0_9603_8438)">
    <path d="M70 32.5C70 31.125 71.125 30 72.5 30C73.875 30 75 31.125 75 32.5C75 33.875 73.875 35 72.5 35C71.125 35 70 33.875 70 32.5ZM80 55C84.2031 55 87.9843 53.1406 90.7187 50.5C91.6875 49.5156 93.2656 49.5 94.25 50.3281C95.2343 51.4219 95.25 53.0156 94.2812 54C90.6562 57.7031 85.5937 60 80 60C72.7187 60 66.3593 56.1094 62.8593 50.1719C62.1406 49.125 62.5312 47.5938 63.7031 46.875C64.8906 46.1719 66.4218 46.5469 67.1406 47.7344C69.7656 52.0938 74.5468 55 80 55Z" fill="#2F3160"/>
    <path opacity="0.4" d="M30.0001 17.5C30.0001 7.83437 37.8282 0.00025 47.3594 0C52.2657 0 56.5938 1.90781 59.7501 5H59.8594C73.8126 5 84.8594 16.1875 84.8594 30V54.1406C83.2969 54.7031 81.7501 55 80.0001 55C74.5469 55 69.7657 52.0938 67.1407 47.7344C66.4219 46.5469 64.8907 46.1719 63.7032 46.875C62.5313 47.5938 62.1407 49.125 62.8594 50.1719C63.4844 51.3438 64.2032 52.3281 64.8594 53.2344V75C64.8594 77.7656 62.7657 80 59.8594 80H49.8594C47.2344 80 44.8594 77.7656 44.8594 75V63.9219C42.6094 64.6719 40.0938 65 37.3594 65C34.9063 65 32.3907 64.6719 29.8594 63.9219V75C29.8594 77.7656 27.7657 80 24.8594 80H14.8594C12.2376 80 9.85943 77.7656 9.85943 75V53.8594C9.60006 54.5938 9.14693 55.2969 8.64381 55.9688L6.75006 58.5C5.50631 60.1562 3.15631 60.5 1.49975 59.25C-0.15713 58 -0.492911 55.6562 0.749745 54L2.64381 51.4688C3.52975 50.2969 4.13912 48.9219 4.42975 47.4844C4.80787 45.5781 4.85943 43.6562 4.85943 41.7188V38.75C4.85943 27.4688 10.536 17.4844 19.0469 11.35C21.6563 9.30781 24.6094 7.69062 27.8126 6.59844C26.0157 9.82812 25.0001 13.5453 25.0001 17.5C25.0001 29.9219 35.0782 40 47.5001 40C48.8751 40 50.0001 38.875 50.0001 37.5C50.0001 36.125 48.8751 35 47.5001 35C37.8282 35 30.0001 27.1719 30.0001 17.5ZM72.5001 30C71.1251 30 70.0001 31.125 70.0001 32.5C70.0001 33.875 71.1251 35 72.5001 35C73.8751 35 75.0001 33.875 75.0001 32.5C75.0001 31.125 73.8751 30 72.5001 30ZM80.0001 60C81.7188 60 83.4063 59.7812 84.8594 59.2344V62.2812C84.8594 63.7812 86.2188 65 87.7188 65C88.7501 65 89.7032 64.4219 90.1563 63.5L90.5313 62.7656C91.7657 60.2969 94.7657 59.2969 97.2344 60.5312C99.7032 61.7656 100.703 64.7656 99.4688 67.2344L99.1094 67.8281C96.9532 72.2812 92.5469 75 87.7188 75C80.7032 75 74.8594 69.2969 74.8594 62.2812V59.2344C76.5938 59.7812 78.2657 60 80.0001 60Z" fill="#2F3160"/>
  </g>
  <defs>
    <clipPath id="clip0_9603_8438">
      <rect width="100" height="80" fill="white"/>
    </clipPath>
  </defs>
</svg>